<svg xmlns="http://www.w3.org/2000/svg" width="200" height="200" viewBox="0 0 200 200">
  <path fill="#9EA0A5" d="M197,141 C141.758065,141 97,185.758065 97,241 C97,296.241935 141.758065,341 197,341 C252.241935,341 297,296.241935 297,241 C297,185.758065 252.241935,141 197,141 Z M197,179.709677 C216.596774,179.709677 232.483871,195.596774 232.483871,215.193548 C232.483871,234.790323 216.596774,250.677419 197,250.677419 C177.403226,250.677419 161.516129,234.790323 161.516129,215.193548 C161.516129,195.596774 177.403226,179.709677 197,179.709677 Z M197,318.419355 C173.330645,318.419355 152.120968,307.693548 137.927419,290.919355 C145.508065,276.645161 160.346774,266.806452 177.645161,266.806452 C178.612903,266.806452 179.580645,266.967742 180.508065,267.25 C185.75,268.943548 191.233871,270.032258 197,270.032258 C202.766129,270.032258 208.290323,268.943548 213.491935,267.25 C214.419355,266.967742 215.387097,266.806452 216.354839,266.806452 C233.653226,266.806452 248.491935,276.645161 256.072581,290.919355 C241.879032,307.693548 220.669355,318.419355 197,318.419355 Z" transform="translate(-97 -141)"/>
</svg>
