<svg xmlns="http://www.w3.org/2000/svg" width="24" height="24" viewBox="0 0 24 24">
    <g fill="none" fill-rule="evenodd">
        <path fill="#000" d="M6.338 1.234H17.8l.45.45 4.804 4.803.45.45v7.024l-.54.461-10.219 8.727-.994.851-.993-.851L.54 14.422l-.54-.46V6.937l.45-.45 4.804-4.804.45-.45z" opacity=".2"/>
        <path fill="#FFF" d="M6.338 0H17.8l.45.45 4.804 4.808.45.446v7.027l-.54.458-10.219 8.73-.994.847-.993-.847L.54 13.189 0 12.73V5.704l.45-.446L5.254.45l.45-.45z"/>
        <path fill="#CB0B17" d="M11.752 2.73H6.337L1.535 7.534v3.922l10.219 8.73 10.218-8.73V7.534L17.168 2.73z"/>
        <path fill="#F5404F" d="M11.752 1.133H6.337L1.535 5.94v3.919l10.219 8.73 10.218-8.73V5.94l-4.803-4.808z"/>
        <path fill="#F4202E" d="M11.752 7.901V18.59l10.22-8.73V7.9z"/>
        <path fill="#F4202E" d="M1.534 7.901h10.219L6.337 1.133 1.534 5.94z"/>
        <path fill="#F75B65" d="M6.338 1.133L11.752 7.9l5.415-6.768h-5.415z"/>
        <path fill="#FFF" d="M11.752 1.909h-4.93l-4.38 4.38v3.57l9.31 7.954 9.312-7.954v-3.57l-4.38-4.38z" opacity=".2"/>
        <path fill="#FCB0B3" d="M2.441 6.289v1.155L2.6 6.4 6.986 2.34l4.309 4.987-3.772-5.175 8.666-.018-2.472 3.311 2.892-3.113 3.69 3.192-3.615-3.615H6.96z"/>
        <path fill="#F97C84" d="M1.534 9.863l10.219 8.726L21.97 9.863l-10.219 8.343z"/>
        <path fill="#E6E6E6" d="M11.752 21.622l-.993-.85L.54 12.044 0 11.584v1.147l.54.458 10.219 8.73.993.847.994-.847 10.219-8.73.54-.458v-1.147l-.54.461-10.219 8.726z"/>
    </g>
</svg>
