<svg xmlns="http://www.w3.org/2000/svg" xmlns:xlink="http://www.w3.org/1999/xlink" width="20" height="20" viewBox="0 0 20 20">
    <defs>
        <path id="a" d="M11.083 10.667a2 2 0 1 0 .001-3.999 2 2 0 0 0-.001 3.999zM2 18h1.956l2.868-3.118-3.23-3.48L2 12.996V18zm0-7.833l1.578-1.578.016.016.016-.016 4.628 4.629 1.431-1.431.016.016.016-.016L14 16.086V6H2v4.167zM12.586 18l-2.901-2.901L6.784 18h5.802zM0 20h16V4H0v16zM20 0v16h-2V2H4V0h16z"/>
    </defs>
    <g fill="none" fill-rule="evenodd">
        <mask id="b" fill="#fff">
            <use xlink:href="#a"/>
        </mask>
        <use fill="#FFF" fill-opacity="0" xlink:href="#a"/>
        <g fill="#9EA0A5" mask="url(#b)">
            <path d="M0 0h20v20H0z"/>
        </g>
    </g>
</svg>
