<svg xmlns="http://www.w3.org/2000/svg" xmlns:xlink="http://www.w3.org/1999/xlink" width="20" height="20" viewBox="0 0 20 20">
    <defs>
        <path id="a" d="M18 12.917c0 .552-.45 1.083-1.002 1.083H16V5.92C16 4.814 15.101 4 13.995 4H6V2.917C6 2.365 6.446 2 6.998 2h10C17.55 2 18 2.365 18 2.917v10zM14 17a1 1 0 0 1-1 1H3a1 1 0 0 1-1-1V7a1 1 0 0 1 1-1h10a1 1 0 0 1 1 1v10zm3.995-17H6.002C4.895 0 4 .814 4 1.92V4H2.002C.895 4 0 4.814 0 5.92v11.994C0 19.02.895 20 2.002 20h11.993C15.101 20 16 19.02 16 17.914V16h1.995C19.101 16 20 15.02 20 13.914V1.92C20 .814 19.101 0 17.995 0z"/>
    </defs>
    <g fill="none" fill-rule="evenodd">
        <mask id="b" fill="#fff">
            <use xlink:href="#a"/>
        </mask>
        <use fill="#FFF" fill-opacity="0" xlink:href="#a"/>
        <g fill="#9EA0A5" mask="url(#b)">
            <path d="M0 0h20v20H0z"/>
        </g>
    </g>
</svg>
